<svg version="1.1" id="Layer_1" xmlns="http://www.w3.org/2000/svg" xmlns:xlink="http://www.w3.org/1999/xlink" x="0px" y="0px"
	 width="100%" viewBox="0 0 784 1024" enable-background="new 0 0 784 1024" xml:space="preserve">
<path fill="#000000" opacity="1.000000" stroke="none" 
	d="
M409.017578,223.634247 
	C483.205170,267.101624 557.045776,310.397888 630.932983,353.614594 
	C634.058289,355.442596 635.280273,357.645905 635.277771,361.242035 
	C635.214111,451.717255 635.203674,542.192566 635.341003,632.667664 
	C635.347778,637.105408 633.324097,639.228638 629.919373,641.208191 
	C589.315247,664.817139 548.743286,688.481506 508.182617,712.165100 
	C476.109222,730.893005 444.017944,749.591431 412.060303,768.515198 
	C407.944336,770.952393 404.958557,771.052429 400.759155,768.589233 
	C357.392853,743.151917 313.865997,717.988586 270.434143,692.662720 
	C241.239105,675.638550 212.164642,658.407288 182.930099,641.451660 
	C178.692612,638.993958 176.910675,636.187866 176.918106,631.157288 
	C177.050491,541.515503 177.031601,451.873474 176.906433,362.231659 
	C176.900253,357.802612 178.441162,355.327240 182.210571,353.129822 
	C242.788651,317.815613 303.295624,282.379425 363.805908,246.948975 
	C375.733978,239.964752 387.579620,232.839432 399.528778,225.891846 
	C402.294861,224.283585 404.937805,221.643448 409.017578,223.634247 
M298.298859,373.879517 
	C286.183563,380.873444 274.201813,388.115570 261.888947,394.742401 
	C256.770050,397.497437 255.149109,400.904663 255.165894,406.581238 
	C255.344696,467.064026 255.333496,527.547729 255.147415,588.030518 
	C255.130966,593.381653 256.850342,596.451477 261.468750,599.109863 
	C305.338867,624.361877 349.291168,649.484558 392.722656,675.475098 
	C402.459595,681.302002 409.288727,681.704102 419.292725,675.713623 
	C463.300171,649.361450 507.930389,624.048218 552.395935,598.464539 
	C555.691956,596.568054 557.004944,594.382263 556.983582,590.531433 
	C556.842041,565.039490 556.950806,539.546204 556.918762,514.053467 
	C556.916382,512.166504 557.563110,509.991425 555.528259,508.510010 
	C552.822021,508.444031 550.883362,510.206238 548.765076,511.428070 
	C517.605591,529.401123 486.462280,547.402161 455.340057,565.439636 
	C452.940918,566.830078 450.473938,567.374451 447.729797,567.360168 
	C434.900360,567.293457 422.067200,567.153564 409.242218,567.398376 
	C404.353485,567.491577 402.821564,565.567810 402.862823,560.927673 
	C403.006561,544.766907 403.005951,528.602600 402.819641,512.442505 
	C402.773254,508.419830 404.236847,506.076813 407.699615,504.097595 
	C453.538330,477.898468 499.157715,451.309967 545.228455,425.527344 
	C554.291077,420.455627 558.634216,414.994965 557.112000,404.570557 
	C556.534912,400.618225 555.865356,397.932739 552.158081,395.782532 
	C507.654602,369.970215 463.064728,344.296356 418.956635,317.821320 
	C409.810883,312.331787 403.570465,311.997406 394.216766,317.753693 
	C362.884308,337.035706 330.749908,355.014648 298.298859,373.879517 
z"/>
</svg>