<svg width="191" height="72" viewBox="0 0 191 72" fill="none" xmlns="http://www.w3.org/2000/svg">
<path d="M26.104 71.344C21.112 71.344 16.696 70.32 12.856 68.272C9.08 66.16 6.104 63.088 3.928 59.056C1.816 55.024 0.76 50.032 0.76 44.08V28.72C0.76 19.824 3.128 13.072 7.864 8.464C12.6 3.792 18.968 1.456 26.968 1.456C34.904 1.456 40.952 3.632 45.112 7.984C49.272 12.336 51.352 18.16 51.352 25.456V25.936H43.384V25.264C43.384 22.064 42.808 19.216 41.656 16.72C40.504 14.224 38.712 12.272 36.28 10.864C33.848 9.39199 30.744 8.65599 26.968 8.65599C21.272 8.65599 16.824 10.416 13.624 13.936C10.424 17.392 8.824 22.256 8.824 28.528V44.272C8.824 50.544 10.424 55.44 13.624 58.96C16.824 62.416 21.304 64.144 27.064 64.144C32.696 64.144 36.824 62.544 39.448 59.344C42.136 56.144 43.48 51.888 43.48 46.576V44.944H23.128V38.032H51.352V70H44.056V62.704H42.712C42.008 64.112 41.016 65.488 39.736 66.832C38.456 68.176 36.728 69.264 34.552 70.096C32.376 70.928 29.56 71.344 26.104 71.344ZM80.743 71.344C77.479 71.344 74.503 70.768 71.815 69.616C69.127 68.464 67.015 66.8 65.479 64.624C63.943 62.448 63.175 59.792 63.175 56.656C63.175 53.456 63.943 50.832 65.479 48.784C67.015 46.672 69.127 45.104 71.815 44.08C74.503 42.992 77.511 42.448 80.839 42.448H96.679V38.992C96.679 35.664 95.687 33.04 93.703 31.12C91.783 29.2 88.903 28.24 85.063 28.24C81.287 28.24 78.343 29.168 76.231 31.024C74.119 32.816 72.679 35.248 71.911 38.32L64.807 36.016C65.575 33.392 66.791 31.024 68.455 28.912C70.119 26.736 72.327 25.008 75.079 23.728C77.895 22.384 81.255 21.712 85.159 21.712C91.175 21.712 95.847 23.28 99.175 26.416C102.503 29.488 104.167 33.84 104.167 39.472V60.688C104.167 62.608 105.063 63.568 106.855 63.568H111.175V70H104.551C102.439 70 100.743 69.424 99.463 68.272C98.183 67.056 97.543 65.456 97.543 63.472V62.992H96.391C95.687 64.208 94.727 65.488 93.511 66.832C92.359 68.112 90.759 69.168 88.711 70C86.663 70.896 84.007 71.344 80.743 71.344ZM81.607 64.816C86.087 64.816 89.703 63.504 92.455 60.88C95.271 58.192 96.679 54.448 96.679 49.648V48.592H81.127C78.119 48.592 75.623 49.264 73.639 50.608C71.719 51.888 70.759 53.84 70.759 56.464C70.759 59.088 71.751 61.136 73.735 62.608C75.783 64.08 78.407 64.816 81.607 64.816ZM121.562 70V23.056H129.146V70H121.562ZM125.402 15.76C123.738 15.76 122.33 15.216 121.178 14.128C120.09 13.04 119.546 11.664 119.546 10C119.546 8.272 120.09 6.864 121.178 5.776C122.33 4.688 123.738 4.144 125.402 4.144C127.066 4.144 128.442 4.688 129.53 5.776C130.618 6.864 131.162 8.272 131.162 10C131.162 11.664 130.618 13.04 129.53 14.128C128.442 15.216 127.066 15.76 125.402 15.76ZM159.493 71.344C156.229 71.344 153.253 70.768 150.565 69.616C147.877 68.464 145.765 66.8 144.229 64.624C142.693 62.448 141.925 59.792 141.925 56.656C141.925 53.456 142.693 50.832 144.229 48.784C145.765 46.672 147.877 45.104 150.565 44.08C153.253 42.992 156.261 42.448 159.589 42.448H175.429V38.992C175.429 35.664 174.437 33.04 172.453 31.12C170.533 29.2 167.653 28.24 163.813 28.24C160.037 28.24 157.093 29.168 154.981 31.024C152.869 32.816 151.429 35.248 150.661 38.32L143.557 36.016C144.325 33.392 145.541 31.024 147.205 28.912C148.869 26.736 151.077 25.008 153.829 23.728C156.645 22.384 160.005 21.712 163.909 21.712C169.925 21.712 174.597 23.28 177.925 26.416C181.253 29.488 182.917 33.84 182.917 39.472V60.688C182.917 62.608 183.813 63.568 185.605 63.568H189.925V70H183.301C181.189 70 179.493 69.424 178.213 68.272C176.933 67.056 176.293 65.456 176.293 63.472V62.992H175.141C174.437 64.208 173.477 65.488 172.261 66.832C171.109 68.112 169.509 69.168 167.461 70C165.413 70.896 162.757 71.344 159.493 71.344ZM160.357 64.816C164.837 64.816 168.453 63.504 171.205 60.88C174.021 58.192 175.429 54.448 175.429 49.648V48.592H159.877C156.869 48.592 154.373 49.264 152.389 50.608C150.469 51.888 149.509 53.84 149.509 56.464C149.509 59.088 150.501 61.136 152.485 62.608C154.533 64.08 157.157 64.816 160.357 64.816Z" fill="black"/>
<path d="M12.856 68.272L12.6119 68.7085L12.6207 68.7132L12.856 68.272ZM3.928 59.056L3.48505 59.288L3.48799 59.2935L3.928 59.056ZM7.864 8.464L8.21269 8.82237L8.21514 8.81995L7.864 8.464ZM51.352 25.936V26.436H51.852V25.936H51.352ZM43.384 25.936H42.884V26.436H43.384V25.936ZM41.656 16.72L42.11 16.5105L42.11 16.5105L41.656 16.72ZM36.28 10.864L36.0211 11.2918L36.0295 11.2967L36.28 10.864ZM13.624 13.936L13.9909 14.2757L13.994 14.2723L13.624 13.936ZM13.624 58.96L13.254 59.2964L13.2571 59.2997L13.624 58.96ZM39.448 59.344L39.0651 59.0224L39.0614 59.027L39.448 59.344ZM43.48 44.944H43.98V44.444H43.48V44.944ZM23.128 44.944H22.628V45.444H23.128V44.944ZM23.128 38.032V37.532H22.628V38.032H23.128ZM51.352 38.032H51.852V37.532H51.352V38.032ZM51.352 70V70.5H51.852V70H51.352ZM44.056 70H43.556V70.5H44.056V70ZM44.056 62.704H44.556V62.204H44.056V62.704ZM42.712 62.704V62.204H42.403L42.2648 62.4804L42.712 62.704ZM39.736 66.832L40.0981 67.1768L40.0981 67.1768L39.736 66.832ZM34.552 70.096L34.7306 70.563L34.7306 70.563L34.552 70.096ZM26.104 71.344V70.844C21.1819 70.844 16.8489 69.8349 13.0913 67.8308L12.856 68.272L12.6207 68.7132C16.5431 70.8051 21.0421 71.844 26.104 71.844V71.344ZM12.856 68.272L13.1001 67.8356C9.41193 65.7728 6.5017 62.7721 4.36801 58.8185L3.928 59.056L3.48799 59.2935C5.7063 63.4039 8.74807 66.5472 12.6119 68.7084L12.856 68.272ZM3.928 59.056L4.37092 58.824C2.30616 54.8822 1.26 49.9752 1.26 44.08H0.76H0.26C0.26 50.0888 1.32584 55.1658 3.48508 59.288L3.928 59.056ZM0.76 44.08H1.26V28.72H0.76H0.26V44.08H0.76ZM0.76 28.72H1.26C1.26 19.9107 3.60331 13.3072 8.21268 8.82236L7.864 8.464L7.51532 8.10563C2.65269 12.8368 0.26 19.7373 0.26 28.72H0.76ZM7.864 8.464L8.21514 8.81995C12.8391 4.25845 19.071 1.956 26.968 1.956V1.456V0.955996C18.865 0.955996 12.3609 3.32555 7.51286 8.10805L7.864 8.464ZM26.968 1.456V1.956C34.8129 1.956 40.7122 4.10477 44.7506 8.32949L45.112 7.984L45.4734 7.63851C41.1918 3.15923 34.9951 0.955996 26.968 0.955996V1.456ZM45.112 7.984L44.7506 8.32949C48.8035 12.5695 50.852 18.2598 50.852 25.456H51.352H51.852C51.852 18.0602 49.7405 12.1025 45.4734 7.63851L45.112 7.984ZM51.352 25.456H50.852V25.936H51.352H51.852V25.456H51.352ZM51.352 25.936V25.436H43.384V25.936V26.436H51.352V25.936ZM43.384 25.936H43.884V25.264H43.384H42.884V25.936H43.384ZM43.384 25.264H43.884C43.884 22.0034 43.2969 19.0821 42.11 16.5105L41.656 16.72L41.202 16.9295C42.3191 19.3499 42.884 22.1246 42.884 25.264H43.384ZM41.656 16.72L42.11 16.5105C40.9138 13.9187 39.0496 11.8897 36.5305 10.4313L36.28 10.864L36.0295 11.2967C38.3744 12.6543 40.0942 14.5293 41.202 16.9295L41.656 16.72ZM36.28 10.864L36.5389 10.4362C34.0072 8.90388 30.8061 8.15599 26.968 8.15599V8.65599V9.15599C30.6819 9.15599 33.6888 9.88011 36.0211 11.2917L36.28 10.864ZM26.968 8.65599V8.15599C21.1614 8.15599 16.5674 9.95497 13.254 13.5997L13.624 13.936L13.994 14.2723C17.0806 10.877 21.3826 9.15599 26.968 9.15599V8.65599ZM13.624 13.936L13.2571 13.5963C9.94639 17.1719 8.324 22.1727 8.324 28.528H8.824H9.324C9.324 22.3393 10.9016 17.6121 13.9909 14.2757L13.624 13.936ZM8.824 28.528H8.324V44.272H8.824H9.324V28.528H8.824ZM8.824 44.272H8.324C8.324 50.6279 9.94662 55.6582 13.254 59.2963L13.624 58.96L13.994 58.6237C10.9014 55.2218 9.324 50.4601 9.324 44.272H8.824ZM13.624 58.96L13.2571 59.2997C16.5723 62.8801 21.1982 64.644 27.064 64.644V64.144V63.644C21.4098 63.644 17.0757 61.9519 13.9909 58.6203L13.624 58.96ZM27.064 64.144V64.644C32.7885 64.644 37.0845 63.0149 39.8346 59.661L39.448 59.344L39.0614 59.027C36.5635 62.0731 32.6035 63.644 27.064 63.644V64.144ZM39.448 59.344L39.8309 59.6656C42.6132 56.3533 43.98 51.973 43.98 46.576H43.48H42.98C42.98 51.803 41.6588 55.9347 39.0652 59.0224L39.448 59.344ZM43.48 46.576H43.98V44.944H43.48H42.98V46.576H43.48ZM43.48 44.944V44.444H23.128V44.944V45.444H43.48V44.944ZM23.128 44.944H23.628V38.032H23.128H22.628V44.944H23.128ZM23.128 38.032V38.532H51.352V38.032V37.532H23.128V38.032ZM51.352 38.032H50.852V70H51.352H51.852V38.032H51.352ZM51.352 70V69.5H44.056V70V70.5H51.352V70ZM44.056 70H44.556V62.704H44.056H43.556V70H44.056ZM44.056 62.704V62.204H42.712V62.704V63.204H44.056V62.704ZM42.712 62.704L42.2648 62.4804C41.5866 63.8369 40.6256 65.1729 39.3739 66.4872L39.736 66.832L40.0981 67.1768C41.4064 65.8031 42.4295 64.3871 43.1592 62.9276L42.712 62.704ZM39.736 66.832L39.3739 66.4872C38.1566 67.7654 36.4972 68.817 34.3734 69.629L34.552 70.096L34.7306 70.563C36.9588 69.711 38.7554 68.5866 40.0981 67.1768L39.736 66.832ZM34.552 70.096L34.3734 69.629C32.275 70.4313 29.5257 70.844 26.104 70.844V71.344V71.844C29.5943 71.844 32.477 71.4247 34.7306 70.563L34.552 70.096ZM71.815 69.616L71.618 70.0756L71.618 70.0756L71.815 69.616ZM65.479 64.624L65.0705 64.9123L65.0705 64.9123L65.479 64.624ZM65.479 48.784L65.879 49.084L65.8834 49.0781L65.479 48.784ZM71.815 44.08L71.993 44.5473L72.0026 44.5435L71.815 44.08ZM96.679 42.448V42.948H97.179V42.448H96.679ZM93.703 31.12L93.3494 31.4736L93.3553 31.4793L93.703 31.12ZM76.231 31.024L76.5545 31.4053L76.5611 31.3996L76.231 31.024ZM71.911 38.32L71.7567 38.7956L72.2662 38.9608L72.3961 38.4413L71.911 38.32ZM64.807 36.016L64.3271 35.8756L64.1907 36.3418L64.6527 36.4916L64.807 36.016ZM68.455 28.912L68.8478 29.2215L68.8522 29.2157L68.455 28.912ZM75.079 23.728L75.2899 24.1814L75.2944 24.1792L75.079 23.728ZM99.175 26.416L98.8321 26.7799L98.8359 26.7834L99.175 26.416ZM111.175 63.568H111.675V63.068H111.175V63.568ZM111.175 70V70.5H111.675V70H111.175ZM99.463 68.272L99.1185 68.6346L99.1285 68.6436L99.463 68.272ZM97.543 62.992H98.043V62.492H97.543V62.992ZM96.391 62.992V62.492H96.1027L95.9583 62.7415L96.391 62.992ZM93.511 66.832L93.1402 66.4965L93.1394 66.4975L93.511 66.832ZM88.711 70L88.5227 69.5366L88.5106 69.5419L88.711 70ZM92.455 60.88L92.8 61.2419L92.8002 61.2417L92.455 60.88ZM96.679 48.592H97.179V48.092H96.679V48.592ZM73.639 50.608L73.9164 51.024L73.9194 51.022L73.639 50.608ZM73.735 62.608L73.437 63.0096L73.4432 63.014L73.735 62.608ZM80.743 71.344V70.844C77.5388 70.844 74.6309 70.2788 72.012 69.1564L71.815 69.616L71.618 70.0756C74.3751 71.2572 77.4192 71.844 80.743 71.844V71.344ZM71.815 69.616L72.012 69.1564C69.4003 68.0372 67.365 66.4288 65.8875 64.3357L65.479 64.624L65.0705 64.9123C66.665 67.1712 68.8537 68.8908 71.618 70.0756L71.815 69.616ZM65.479 64.624L65.8875 64.3357C64.421 62.2582 63.675 59.7076 63.675 56.656H63.175H62.675C62.675 59.8764 63.465 62.6378 65.0705 64.9123L65.479 64.624ZM63.175 56.656H63.675C63.675 53.5367 64.4226 51.0258 65.879 49.084L65.479 48.784L65.079 48.484C63.4634 50.6382 62.675 53.3753 62.675 56.656H63.175ZM65.479 48.784L65.8834 49.0781C67.3566 47.0524 69.3861 45.5403 71.993 44.5472L71.815 44.08L71.637 43.6128C68.8679 44.6677 66.6734 46.2916 65.0746 48.4899L65.479 48.784ZM71.815 44.08L72.0026 44.5435C74.6229 43.4829 77.5659 42.948 80.839 42.948V42.448V41.948C77.4561 41.948 74.3831 42.5011 71.6274 43.6165L71.815 44.08ZM80.839 42.448V42.948H96.679V42.448V41.948H80.839V42.448ZM96.679 42.448H97.179V38.992H96.679H96.179V42.448H96.679ZM96.679 38.992H97.179C97.179 35.5584 96.1516 32.7938 94.0507 30.7607L93.703 31.12L93.3553 31.4793C95.2224 33.2862 96.179 35.7696 96.179 38.992H96.679ZM93.703 31.12L94.0566 30.7664C92.0097 28.7196 88.9801 27.74 85.063 27.74V28.24V28.74C88.8259 28.74 91.5563 29.6804 93.3494 31.4736L93.703 31.12ZM85.063 28.24V27.74C81.2076 27.74 78.1315 28.6882 75.9009 30.6484L76.231 31.024L76.5611 31.3996C78.5545 29.6478 81.3664 28.74 85.063 28.74V28.24ZM76.231 31.024L75.9075 30.6427C73.7047 32.5118 72.2155 35.0404 71.4259 38.1987L71.911 38.32L72.3961 38.4413C73.1425 35.4556 74.5333 33.1202 76.5545 31.4053L76.231 31.024ZM71.911 38.32L72.0653 37.8444L64.9613 35.5404L64.807 36.016L64.6527 36.4916L71.7567 38.7956L71.911 38.32ZM64.807 36.016L65.2869 36.1564C66.0372 33.5928 67.224 31.2823 68.8477 29.2214L68.455 28.912L68.0623 28.6026C66.358 30.7657 65.1128 33.1912 64.3271 35.8756L64.807 36.016ZM68.455 28.912L68.8522 29.2157C70.462 27.1106 72.6031 25.431 75.2899 24.1814L75.079 23.728L74.8681 23.2746C72.0509 24.585 69.776 26.3614 68.0578 28.6083L68.455 28.912ZM75.079 23.728L75.2944 24.1792C78.0284 22.8744 81.3113 22.212 85.159 22.212V21.712V21.212C81.1987 21.212 77.7616 21.8936 74.8636 23.2768L75.079 23.728ZM85.159 21.712V22.212C91.0889 22.212 95.6232 23.7561 98.8321 26.7799L99.175 26.416L99.5179 26.0521C96.0709 22.8039 91.2611 21.212 85.159 21.212V21.712ZM99.175 26.416L98.8359 26.7834C102.037 29.7386 103.667 33.9431 103.667 39.472H104.167H104.667C104.667 33.7369 102.969 29.2374 99.5141 26.0486L99.175 26.416ZM104.167 39.472H103.667V60.688H104.167H104.667V39.472H104.167ZM104.167 60.688H103.667C103.667 61.7168 103.906 62.5815 104.473 63.1892C105.047 63.8033 105.873 64.068 106.855 64.068V63.568V63.068C106.045 63.068 105.527 62.8527 105.205 62.5068C104.876 62.1545 104.667 61.5792 104.667 60.688H104.167ZM106.855 63.568V64.068H111.175V63.568V63.068H106.855V63.568ZM111.175 63.568H110.675V70H111.175H111.675V63.568H111.175ZM111.175 70V69.5H104.551V70V70.5H111.175V70ZM104.551 70V69.5C102.533 69.5 100.966 68.952 99.7975 67.9004L99.463 68.272L99.1285 68.6436C100.52 69.896 102.345 70.5 104.551 70.5V70ZM99.463 68.272L99.8074 67.9095C98.6395 66.8 98.043 65.3376 98.043 63.472H97.543H97.043C97.043 65.5744 97.7265 67.312 99.1186 68.6345L99.463 68.272ZM97.543 63.472H98.043V62.992H97.543H97.043V63.472H97.543ZM97.543 62.992V62.492H96.391V62.992V63.492H97.543V62.992ZM96.391 62.992L95.9583 62.7415C95.2761 63.9198 94.3391 65.1715 93.1402 66.4965L93.511 66.832L93.8818 67.1675C95.1149 65.8045 96.0979 64.4962 96.8237 63.2425L96.391 62.992ZM93.511 66.832L93.1394 66.4975C92.0502 67.7077 90.5199 68.7254 88.5228 69.5368L88.711 70L88.8992 70.4632C90.9981 69.6106 92.6678 68.5163 93.8826 67.1665L93.511 66.832ZM88.711 70L88.5106 69.5419C86.5479 70.4006 83.9671 70.844 80.743 70.844V71.344V71.844C84.0469 71.844 86.7781 71.3914 88.9114 70.4581L88.711 70ZM81.607 64.816V65.316C86.191 65.316 89.9387 63.9701 92.8 61.2419L92.455 60.88L92.11 60.5181C89.4673 63.0379 85.983 64.316 81.607 64.316V64.816ZM92.455 60.88L92.8002 61.2417C95.7373 58.4382 97.179 54.5506 97.179 49.648H96.679H96.179C96.179 54.3454 94.8047 57.9458 92.1098 60.5183L92.455 60.88ZM96.679 49.648H97.179V48.592H96.679H96.179V49.648H96.679ZM96.679 48.592V48.092H81.127V48.592V49.092H96.679V48.592ZM81.127 48.592V48.092C78.0446 48.092 75.4443 48.7812 73.3586 50.194L73.639 50.608L73.9194 51.022C75.8018 49.7468 78.1934 49.092 81.127 49.092V48.592ZM73.639 50.608L73.3617 50.192C71.2817 51.5786 70.259 53.6996 70.259 56.464H70.759H71.259C71.259 53.9804 72.1564 52.1974 73.9164 51.024L73.639 50.608ZM70.759 56.464H70.259C70.259 59.2348 71.317 61.4366 73.4371 63.0095L73.735 62.608L74.0329 62.2065C72.185 60.8354 71.259 58.9412 71.259 56.464H70.759ZM73.735 62.608L73.4432 63.014C75.5966 64.5618 78.3306 65.316 81.607 65.316V64.816V64.316C78.4834 64.316 75.9694 63.5982 74.0268 62.202L73.735 62.608ZM121.562 70H121.062V70.5H121.562V70ZM121.562 23.056V22.556H121.062V23.056H121.562ZM129.146 23.056H129.646V22.556H129.146V23.056ZM129.146 70V70.5H129.646V70H129.146ZM121.178 14.128L120.824 14.4816L120.829 14.4866L120.834 14.4915L121.178 14.128ZM121.178 5.776L120.834 5.41249L120.829 5.41739L120.824 5.42244L121.178 5.776ZM121.562 70H122.062V23.056H121.562H121.062V70H121.562ZM121.562 23.056V23.556H129.146V23.056V22.556H121.562V23.056ZM129.146 23.056H128.646V70H129.146H129.646V23.056H129.146ZM129.146 70V69.5H121.562V70V70.5H129.146V70ZM125.402 15.76V15.26C123.858 15.26 122.575 14.7601 121.521 13.7645L121.178 14.128L120.834 14.4915C122.084 15.6719 123.617 16.26 125.402 16.26V15.76ZM121.178 14.128L121.531 13.7744C120.545 12.7883 120.046 11.5433 120.046 10H119.546H119.046C119.046 11.7847 119.634 13.2917 120.824 14.4816L121.178 14.128ZM119.546 10H120.046C120.046 8.38679 120.549 7.11189 121.531 6.12955L121.178 5.776L120.824 5.42244C119.631 6.6161 119.046 8.15721 119.046 10H119.546ZM121.178 5.776L121.521 6.1395C122.575 5.14389 123.858 4.644 125.402 4.644V4.144V3.644C123.617 3.644 122.084 4.2321 120.834 5.41249L121.178 5.776ZM125.402 4.144V4.644C126.945 4.644 128.19 5.14343 129.176 6.12955L129.53 5.776L129.883 5.42244C128.693 4.23257 127.186 3.644 125.402 3.644V4.144ZM129.53 5.776L129.176 6.12955C130.159 7.11189 130.662 8.38679 130.662 10H131.162H131.662C131.662 8.15721 131.077 6.6161 129.883 5.42244L129.53 5.776ZM131.162 10H130.662C130.662 11.5433 130.162 12.7883 129.176 13.7744L129.53 14.128L129.883 14.4816C131.073 13.2917 131.662 11.7847 131.662 10H131.162ZM129.53 14.128L129.176 13.7744C128.19 14.7606 126.945 15.26 125.402 15.26V15.76V16.26C127.186 16.26 128.693 15.6714 129.883 14.4816L129.53 14.128ZM150.565 69.616L150.368 70.0756L150.368 70.0756L150.565 69.616ZM144.229 64.624L143.821 64.9123L143.821 64.9123L144.229 64.624ZM144.229 48.784L144.629 49.084L144.633 49.0781L144.229 48.784ZM150.565 44.08L150.743 44.5473L150.753 44.5435L150.565 44.08ZM175.429 42.448V42.948H175.929V42.448H175.429ZM172.453 31.12L172.099 31.4736L172.105 31.4793L172.453 31.12ZM154.981 31.024L155.305 31.4053L155.311 31.3996L154.981 31.024ZM150.661 38.32L150.507 38.7956L151.016 38.9608L151.146 38.4413L150.661 38.32ZM143.557 36.016L143.077 35.8756L142.941 36.3418L143.403 36.4916L143.557 36.016ZM147.205 28.912L147.598 29.2215L147.602 29.2157L147.205 28.912ZM153.829 23.728L154.04 24.1814L154.044 24.1792L153.829 23.728ZM177.925 26.416L177.582 26.7799L177.586 26.7834L177.925 26.416ZM189.925 63.568H190.425V63.068H189.925V63.568ZM189.925 70V70.5H190.425V70H189.925ZM178.213 68.272L177.869 68.6346L177.879 68.6436L178.213 68.272ZM176.293 62.992H176.793V62.492H176.293V62.992ZM175.141 62.992V62.492H174.853L174.708 62.7415L175.141 62.992ZM172.261 66.832L171.89 66.4965L171.889 66.4975L172.261 66.832ZM167.461 70L167.273 69.5366L167.261 69.5419L167.461 70ZM171.205 60.88L171.55 61.2419L171.55 61.2417L171.205 60.88ZM175.429 48.592H175.929V48.092H175.429V48.592ZM152.389 50.608L152.666 51.024L152.669 51.022L152.389 50.608ZM152.485 62.608L152.187 63.0096L152.193 63.014L152.485 62.608ZM159.493 71.344V70.844C156.289 70.844 153.381 70.2788 150.762 69.1564L150.565 69.616L150.368 70.0756C153.125 71.2572 156.169 71.844 159.493 71.844V71.344ZM150.565 69.616L150.762 69.1564C148.15 68.0372 146.115 66.4288 144.637 64.3357L144.229 64.624L143.821 64.9123C145.415 67.1712 147.604 68.8908 150.368 70.0756L150.565 69.616ZM144.229 64.624L144.637 64.3357C143.171 62.2582 142.425 59.7076 142.425 56.656H141.925H141.425C141.425 59.8764 142.215 62.6378 143.821 64.9123L144.229 64.624ZM141.925 56.656H142.425C142.425 53.5367 143.173 51.0258 144.629 49.084L144.229 48.784L143.829 48.484C142.213 50.6382 141.425 53.3753 141.425 56.656H141.925ZM144.229 48.784L144.633 49.0781C146.107 47.0524 148.136 45.5403 150.743 44.5472L150.565 44.08L150.387 43.6128C147.618 44.6677 145.423 46.2916 143.825 48.4899L144.229 48.784ZM150.565 44.08L150.753 44.5435C153.373 43.4829 156.316 42.948 159.589 42.948V42.448V41.948C156.206 41.948 153.133 42.5011 150.377 43.6165L150.565 44.08ZM159.589 42.448V42.948H175.429V42.448V41.948H159.589V42.448ZM175.429 42.448H175.929V38.992H175.429H174.929V42.448H175.429ZM175.429 38.992H175.929C175.929 35.5584 174.902 32.7938 172.801 30.7607L172.453 31.12L172.105 31.4793C173.972 33.2862 174.929 35.7696 174.929 38.992H175.429ZM172.453 31.12L172.807 30.7664C170.76 28.7196 167.73 27.74 163.813 27.74V28.24V28.74C167.576 28.74 170.306 29.6804 172.099 31.4736L172.453 31.12ZM163.813 28.24V27.74C159.958 27.74 156.882 28.6882 154.651 30.6484L154.981 31.024L155.311 31.3996C157.304 29.6478 160.116 28.74 163.813 28.74V28.24ZM154.981 31.024L154.658 30.6427C152.455 32.5118 150.966 35.0404 150.176 38.1987L150.661 38.32L151.146 38.4413C151.892 35.4556 153.283 33.1202 155.304 31.4053L154.981 31.024ZM150.661 38.32L150.815 37.8444L143.711 35.5404L143.557 36.016L143.403 36.4916L150.507 38.7956L150.661 38.32ZM143.557 36.016L144.037 36.1564C144.787 33.5928 145.974 31.2823 147.598 29.2214L147.205 28.912L146.812 28.6026C145.108 30.7657 143.863 33.1912 143.077 35.8756L143.557 36.016ZM147.205 28.912L147.602 29.2157C149.212 27.1106 151.353 25.431 154.04 24.1814L153.829 23.728L153.618 23.2746C150.801 24.585 148.526 26.3614 146.808 28.6083L147.205 28.912ZM153.829 23.728L154.044 24.1792C156.778 22.8744 160.061 22.212 163.909 22.212V21.712V21.212C159.949 21.212 156.512 21.8936 153.614 23.2768L153.829 23.728ZM163.909 21.712V22.212C169.839 22.212 174.373 23.7561 177.582 26.7799L177.925 26.416L178.268 26.0521C174.821 22.8039 170.011 21.212 163.909 21.212V21.712ZM177.925 26.416L177.586 26.7834C180.787 29.7386 182.417 33.9431 182.417 39.472H182.917H183.417C183.417 33.7369 181.719 29.2374 178.264 26.0486L177.925 26.416ZM182.917 39.472H182.417V60.688H182.917H183.417V39.472H182.917ZM182.917 60.688H182.417C182.417 61.7168 182.656 62.5815 183.223 63.1892C183.797 63.8033 184.623 64.068 185.605 64.068V63.568V63.068C184.795 63.068 184.277 62.8527 183.955 62.5068C183.626 62.1545 183.417 61.5792 183.417 60.688H182.917ZM185.605 63.568V64.068H189.925V63.568V63.068H185.605V63.568ZM189.925 63.568H189.425V70H189.925H190.425V63.568H189.925ZM189.925 70V69.5H183.301V70V70.5H189.925V70ZM183.301 70V69.5C181.283 69.5 179.716 68.952 178.547 67.9004L178.213 68.272L177.879 68.6436C179.27 69.896 181.095 70.5 183.301 70.5V70ZM178.213 68.272L178.557 67.9095C177.39 66.8 176.793 65.3376 176.793 63.472H176.293H175.793C175.793 65.5744 176.476 67.312 177.869 68.6345L178.213 68.272ZM176.293 63.472H176.793V62.992H176.293H175.793V63.472H176.293ZM176.293 62.992V62.492H175.141V62.992V63.492H176.293V62.992ZM175.141 62.992L174.708 62.7415C174.026 63.9198 173.089 65.1715 171.89 66.4965L172.261 66.832L172.632 67.1675C173.865 65.8045 174.848 64.4962 175.574 63.2425L175.141 62.992ZM172.261 66.832L171.889 66.4975C170.8 67.7077 169.27 68.7254 167.273 69.5368L167.461 70L167.649 70.4632C169.748 69.6106 171.418 68.5163 172.633 67.1665L172.261 66.832ZM167.461 70L167.261 69.5419C165.298 70.4006 162.717 70.844 159.493 70.844V71.344V71.844C162.797 71.844 165.528 71.3914 167.661 70.4581L167.461 70ZM160.357 64.816V65.316C164.941 65.316 168.689 63.9701 171.55 61.2419L171.205 60.88L170.86 60.5181C168.217 63.0379 164.733 64.316 160.357 64.316V64.816ZM171.205 60.88L171.55 61.2417C174.487 58.4382 175.929 54.5506 175.929 49.648H175.429H174.929C174.929 54.3454 173.555 57.9458 170.86 60.5183L171.205 60.88ZM175.429 49.648H175.929V48.592H175.429H174.929V49.648H175.429ZM175.429 48.592V48.092H159.877V48.592V49.092H175.429V48.592ZM159.877 48.592V48.092C156.795 48.092 154.194 48.7812 152.109 50.194L152.389 50.608L152.669 51.022C154.552 49.7468 156.943 49.092 159.877 49.092V48.592ZM152.389 50.608L152.112 50.192C150.032 51.5786 149.009 53.6996 149.009 56.464H149.509H150.009C150.009 53.9804 150.906 52.1974 152.666 51.024L152.389 50.608ZM149.509 56.464H149.009C149.009 59.2348 150.067 61.4366 152.187 63.0095L152.485 62.608L152.783 62.2065C150.935 60.8354 150.009 58.9412 150.009 56.464H149.509ZM152.485 62.608L152.193 63.014C154.347 64.5618 157.081 65.316 160.357 65.316V64.816V64.316C157.233 64.316 154.719 63.5982 152.777 62.202L152.485 62.608Z" fill="black"/>
</svg>
