<?xml version="1.0" encoding="UTF-8"?>
<svg xmlns="http://www.w3.org/2000/svg" width="512" height="512" viewBox="0 0 512 512" role="img" aria-label="GAIA icon">
  <title>GAIA icon</title>
  <desc>Pinwheel mark with eight curved blades</desc>
  <path d="M 302.08,234.24 Q 369.66,208.13 424.96,236.85 Q 400.38,256.00 345.09,308.22 Q 302.08,278.63 295.25,256.00 Q 302.08,234.24 302.08,234.24 Z" fill="#000000" />
  <path d="M 303.97,273.20 Q 370.22,302.52 389.01,361.93 Q 358.09,358.09 282.07,355.92 Q 272.58,304.59 283.76,283.76 Q 303.97,273.20 303.97,273.20 Z" fill="#000000" />
  <path d="M 277.76,302.08 Q 303.87,369.66 275.15,424.96 Q 256.00,400.38 203.78,345.09 Q 233.37,302.08 256.00,295.25 Q 277.76,302.08 277.76,302.08 Z" fill="#000000" />
  <path d="M 238.80,303.97 Q 209.48,370.22 150.07,389.01 Q 153.91,358.09 156.08,282.07 Q 207.41,272.58 228.24,283.76 Q 238.80,303.97 238.80,303.97 Z" fill="#000000" />
  <path d="M 209.92,277.76 Q 142.34,303.87 87.04,275.15 Q 111.62,256.00 166.91,203.78 Q 209.92,233.37 216.75,256.00 Q 209.92,277.76 209.92,277.76 Z" fill="#000000" />
  <path d="M 208.03,238.80 Q 141.78,209.48 122.99,150.07 Q 153.91,153.91 229.93,156.08 Q 239.42,207.41 228.24,228.24 Q 208.03,238.80 208.03,238.80 Z" fill="#000000" />
  <path d="M 234.24,209.92 Q 208.13,142.34 236.85,87.04 Q 256.00,111.62 308.22,166.91 Q 278.63,209.92 256.00,216.75 Q 234.24,209.92 234.24,209.92 Z" fill="#000000" />
  <path d="M 273.20,208.03 Q 302.52,141.78 361.93,122.99 Q 358.09,153.91 355.92,229.93 Q 304.59,239.42 283.76,228.24 Q 273.20,208.03 273.20,208.03 Z" fill="#000000" />
</svg>